inDegrees=no
num_controls=7
num_derivatives=13
num_iterations=164
num_multipliers=7
num_parameters=0
num_slacks=7
num_states=26
objective=5.360472
objective_accelerations=0.545350
objective_balance=0.048137
objective_effort=0.476914
objective_height=4.207701
objective_ligament=0.082369
solver_duration=1831.578294
status=Solve_Succeeded
success=true
DataType=double
version=3
OpenSimVersion=4.4-2022-07-23-0e9fedc
endheader
time	/jointset/ground_pelvis/pelvis_tilt/value	/jointset/ground_pelvis/pelvis_tx/value	/jointset/ground_pelvis/pelvis_ty/value	/jointset/hip_l/hip_flexion_l/value	/jointset/hip_l/hip_adduction_l/value	/jointset/hip_l/hip_rotation_l/value	/jointset/back/lumbar_extension/value	/jointset/patellofemoral_l/patellar_flexion_l/value	/jointset/knee_l/knee_flexion_l/value	/jointset/knee_l/knee_adduction_l/value	/jointset/knee_l/knee_rotation_l/value	/jointset/ankle_l/ankle_angle_l/value	/jointset/subtalar_l/subtalar_angle_l/value	/jointset/ground_pelvis/pelvis_tilt/speed	/jointset/ground_pelvis/pelvis_tx/speed	/jointset/ground_pelvis/pelvis_ty/speed	/jointset/hip_l/hip_flexion_l/speed	/jointset/hip_l/hip_adduction_l/speed	/jointset/hip_l/hip_rotation_l/speed	/jointset/back/lumbar_extension/speed	/jointset/patellofemoral_l/patellar_flexion_l/speed	/jointset/knee_l/knee_flexion_l/speed	/jointset/knee_l/knee_adduction_l/speed	/jointset/knee_l/knee_rotation_l/speed	/jointset/ankle_l/ankle_angle_l/speed	/jointset/subtalar_l/subtalar_angle_l/speed	/forceset/tau_hip_flexion_l	/forceset/tau_hip_adduction_l	/forceset/tau_hip_rotation_l	/forceset/tau_knee_flexion_l	/forceset/tau_ankle_angle_l	/forceset/tau_subtalar_angle_l	/forceset/tau_lumbar_extension	lambda_cid13_p0	lambda_cid13_p1	lambda_cid13_p2	lambda_cid13_p3	lambda_cid13_p4	lambda_cid13_p5	lambda_cid14_p0	/jointset/ground_pelvis/pelvis_tilt/accel	/jointset/ground_pelvis/pelvis_tx/accel	/jointset/ground_pelvis/pelvis_ty/accel	/jointset/hip_l/hip_flexion_l/accel	/jointset/hip_l/hip_adduction_l/accel	/jointset/hip_l/hip_rotation_l/accel	/jointset/back/lumbar_extension/accel	/jointset/patellofemoral_l/patellar_flexion_l/accel	/jointset/knee_l/knee_flexion_l/accel	/jointset/knee_l/knee_adduction_l/accel	/jointset/knee_l/knee_rotation_l/accel	/jointset/ankle_l/ankle_angle_l/accel	/jointset/subtalar_l/subtalar_angle_l/accel	gamma_cid13_p0	gamma_cid13_p1	gamma_cid13_p2	gamma_cid13_p3	gamma_cid13_p4	gamma_cid13_p5	gamma_cid14_p0
0	-0.159683608407328	0.05839505376923323	0.8979826395129139	0.3774920279260975	-0.2593719983739753	-0.2689707393496613	-0.0126506700172305	0.03223623128433668	0.03223623128433527	-0.1745329040622062	0.1707108045372622	-0.04231376238535053	-0.009542865072416034	0	0	0	0	0	0	0	0	0	0	0	0	0	0.1348328681992702	-0.06566583741504707	-0.04519115769306982	-0.2645971518172507	0.2343598292804488	-0.03363121494290525	-0.0862269029572553	32.91535095472683	2.354839147627785	6.6329637523752	20.07144175483163	-590.6784721063169	-70.69275014387333	-38.95373133850276	-4.628942961485152	-2.623139187945864	-1.122994717159819	12.59965362760679	-1.036079313419569	2.410680606114773	-5.792429425752854	7.556314809479218	7.556314809475475	0.05875500500678185	0.1547151124927032	-0.4181811477609312	-1.159026786463013	-6.060260520543505e-09	9.211036072519919e-08	3.225395731437087e-08	-1.039087658280233e-08	9.738936459426095e-08	5.229781519825981e-08	-3.68995714178813e-09
0.01	-0.1599081086068929	0.05826569305685757	0.8979276854074885	0.3781071732344629	-0.2594238630902629	-0.268850777765239	-0.01294105398645029	0.0326052831435133	0.03260528314352174	-0.1745322601909276	0.1707162832807219	-0.04233593253254918	-0.00960114612355391	-0.04469823529743897	-0.02573015049003051	-0.0109496713541288	0.1224490104619041	-0.01032461229659365	0.02387885406241014	-0.05766070952302674	0.07348377212765646	0.07348377212765544	0.0001217662250910406	0.001097829656936379	-0.004380198940322383	-0.01159413287337978	0.1300654137444409	-0.07208610380258998	-0.04445630457884243	-0.2605819135863012	0.2292469342865492	-0.02462574360919183	-0.08202806322702694	31.61674225638226	-1.135176972626047	6.968134219250695	19.60791804740757	-591.7256839669323	-77.34804889312481	-38.96451363055291	-4.359998934716575	-2.526656260363789	-1.074761406631952	11.98051311094245	-1.023415038895398	2.359465803859652	-5.690479067286386	7.195419196304194	7.195419196306609	-0.0121481470291805	0.08762771603313842	-0.4398640806818964	-1.15031318579584	-2.375234734271678e-08	9.373927809435895e-08	6.374634798061024e-08	3.586427840212221e-09	-1.420589529179699e-08	5.406368986615872e-08	-9.724673503909255e-09
0.02	-0.1605735381836067	0.0578832901834157	0.897764472976102	0.3799294063185087	-0.2595775264997406	-0.2684954320406809	-0.01379556252125638	0.03369937488034384	0.0336993748803469	-0.1745306057791307	0.1707328024854999	-0.04240028963185415	-0.009773509833029733	-0.08818587542860115	-0.05060843221324243	-0.021651665192222	0.2414175551422199	-0.02035973863782828	0.04707682802704126	-0.1128249131144188	0.1450079755311263	0.1450079755311491	0.00020210931864174	0.002208092263434255	-0.008437390421201847	-0.02281653166755612	0.1252979592893485	-0.07850637019007962	-0.04372145146470038	-0.2565666753554253	0.2241340392926473	-0.01562027227542601	-0.07782922349703712	30.38423166169656	-4.635980462552711	7.304128515264215	19.1040572599224	-591.7101945729296	-83.91971435643352	-38.99633928360338	-4.386823928229532	-2.452765434582294	-1.073459213952562	11.90356047128946	-0.9781821223460846	2.27450458655899	-5.293128239425933	7.164401064641914	7.164401064643116	0.05047037870204666	0.1572017024048315	-0.3535796558720276	-1.084679970620605	-4.144443416489006e-08	9.536819546351871e-08	9.523873864684961e-08	1.756373226322677e-08	-1.258011551778549e-07	5.582956453405763e-08	-1.575938986603038e-08
0.03	-0.1616677984611585	0.0572561943286769	0.8974952584878354	0.3829244365087252	-0.2598298104722763	-0.2679113479853696	-0.01518923047855865	0.03549919202388291	0.03549919202386242	-0.1745278948025199	0.1707603683656375	-0.04250365856045422	-0.01005597752990263	-0.130429174425553	-0.07468330949210202	-0.03216659569479708	0.3570053931249662	-0.03003154163748804	0.06964204739469916	-0.1655288264443625	0.2146402643151624	0.2146402643152239	0.0003546423369200493	0.003291947767314644	-0.01219268306642774	-0.03360078808289428	0.1191328942576909	-0.07382951592876938	-0.04285218201158215	-0.2510829690667103	0.2193621232193823	-0.01700083078488973	-0.07274154041498704	28.84936733528419	-3.859505890340238	7.285246337425291	19.16131599707039	-591.4954025798972	-81.43830639985065	-39.04823792057578	-4.107537359265505	-2.365730918321576	-1.036840064680163	11.29892418359056	-0.9518626828003361	2.23282622491939	-5.202045094679661	6.815367632432567	6.815367632437829	-0.0001514915898205016	0.08199408420632429	-0.3799483459197709	-1.06389113910502	-5.373009349714904e-08	1.094578330082303e-07	1.100918821975686e-07	2.815283747843152e-08	-2.039992522473725e-07	6.365129110893535e-08	-1.797913074319635e-08
0.04	-0.1631773826234557	0.05639217329239323	0.897121628675288	0.3870578508231637	-0.2601768491336141	-0.2671045526137887	-0.0170985420121384	0.03798587702468362	0.03798587702468443	-0.1745232177461278	0.1707983761228122	-0.04264326927092105	-0.01044400632335199	-0.1712506523760058	-0.09799346852221674	-0.04253473004839579	0.469094379980643	-0.03931067639814076	0.09161909128436203	-0.2159536283703623	0.2823815469851237	0.2823815469852253	0.0005953251559724546	0.004296467664260903	-0.01568574679452882	-0.04392875098281932	0.1129678292263782	-0.06915266166740817	-0.0419829125582164	-0.2455992627778543	0.2145902071461837	-0.01838138929429253	-0.06765385733271494	27.37436873575741	-3.092101210816497	7.266198459776035	19.17703774825846	-590.3287382453517	-78.87724834264613	-39.11914725913054	-4.102459718929864	-2.299821784833093	-1.044099984157322	11.20379024587541	-0.8996484745451864	2.156869490960002	-4.83730595863714	6.786199841826932	6.786199841828426	0.06810033885585125	0.1413345810180432	-0.3011338724469338	-0.9934212675384482	-6.590428009765721e-08	1.238043926184172e-07	1.246019484881737e-07	3.867208291615566e-08	-2.815087480217038e-07	7.159788060973015e-08	-2.012021233201272e-08
0.05	-0.165088740306592	0.05529893305850947	0.8966448254246344	0.3922955582353668	-0.2606145967828759	-0.2660810273869769	-0.01950027498862203	0.04114084673361251	0.0411408467336048	-0.1745155474910117	0.1708462101673938	-0.04281634342050521	-0.01093287991809052	-0.210803318828011	-0.1205176984826779	-0.05281668823207941	0.577871214493606	-0.04817286404632969	0.1129790847270506	-0.2640171687469668	0.348287713305077	0.3482877133051419	0.0009370790449157317	0.005261384450822163	-0.0188841846544225	-0.05376902418416585	0.1067777003090723	-0.0678598621148825	-0.04118416106963612	-0.2412139727483647	0.210828437349192	-0.01675368666182377	-0.06254566725263649	26.34571172374453	-3.615587884234932	7.345870464700834	18.74467141677289	-589.2151794415433	-78.97584747613348	-39.207707924953	-3.849040532816442	-2.208183816005594	-1.018915886017673	10.62823608618808	-0.8696169195173932	2.109515577764971	-4.7345083503089	6.444126844725479	6.444126844718882	0.01699216980641701	0.07270966685118689	-0.3224662171423238	-0.9678218972478549	-7.526655784811776e-08	1.327165493176593e-07	1.354627316701486e-07	4.804917872926777e-08	-3.38186451855292e-07	7.557803964830118e-08	-2.158827397211168e-08
